<?xml version="1.0" standalone="no"?>
<!DOCTYPE svg PUBLIC "-//W3C//DTD SVG 20010904//EN"
 "http://www.w3.org/TR/2001/REC-SVG-20010904/DTD/svg10.dtd">
<svg version="1.0" xmlns="http://www.w3.org/2000/svg"
 width="315.000000pt" height="315.000000pt" viewBox="0 0 315.000000 315.000000"
 preserveAspectRatio="xMidYMid meet">
<metadata>
Created by potrace 1.11, written by Peter Selinger 2001-2013
</metadata>
<g transform="translate(0.000000,315.000000) scale(0.100000,-0.100000)"
fill="#000000" stroke="none">
<path d="M1376 2925 c-15 -33 -39 -91 -53 -130 -26 -75 -33 -160 -48 -630 -4
-110 -8 -202 -10 -204 -2 -2 -17 6 -33 18 -41 29 -149 76 -235 103 -62 20 -94
23 -227 23 -104 0 -162 -4 -175 -12 -11 -7 -15 -13 -8 -13 6 0 30 -35 53 -77
23 -43 50 -87 59 -98 34 -39 33 -43 -19 -58 -48 -14 -53 -14 -112 10 -232 94
-482 -135 -375 -343 14 -27 51 -71 82 -97 l56 -49 76 10 c74 10 78 10 132 -17
31 -16 81 -36 111 -45 30 -10 61 -19 68 -22 9 -3 4 -18 -19 -51 -18 -26 -49
-77 -70 -114 -36 -66 -36 -67 -15 -74 11 -4 78 -9 147 -10 137 -4 220 9 317
48 l58 24 -24 -81 c-27 -91 -32 -237 -12 -360 10 -61 39 -140 40 -109 0 6 17
22 37 34 21 13 66 45 100 71 67 52 73 55 73 36 0 -7 13 -40 28 -73 l29 -60
-19 -54 c-10 -30 -20 -84 -23 -121 l-5 -65 67 -67 c76 -75 103 -89 180 -89 56
-1 134 31 181 74 39 37 73 106 79 163 6 59 13 63 58 36 17 -10 56 -29 88 -42
50 -19 60 -21 72 -9 21 21 53 110 67 184 10 60 14 66 32 61 58 -16 147 -27
196 -24 l55 3 -1 137 -1 137 26 5 c14 3 46 8 71 11 64 10 154 36 162 48 8 14
-17 97 -57 185 l-34 72 62 31 c34 17 89 50 122 73 33 23 86 55 118 71 31 16
57 32 57 36 0 7 -80 18 -145 20 -36 1 -46 8 -97 63 l-57 62 55 60 c57 60 114
136 114 151 0 11 -113 85 -180 118 -30 15 -56 28 -58 30 -1 1 9 22 23 46 29
50 78 196 70 209 -9 15 -178 49 -275 55 -159 11 -349 -40 -479 -126 l-34 -23
8 34 c13 60 14 241 1 233 -106 -63 -250 -256 -296 -398 -7 -22 -19 -49 -26
-60 -6 -11 -17 -60 -24 -110 -11 -84 -20 -121 -20 -80 0 34 -42 160 -60 180
-33 37 -38 89 -44 435 -6 348 -13 499 -25 600 l-7 55 -28 -60z m-871 -1124
l30 -8 -27 -13 c-16 -7 -28 -17 -28 -21 0 -5 -14 -16 -30 -24 -37 -19 -170
-143 -170 -158 0 -6 21 -33 48 -60 l47 -49 -40 16 c-47 19 -102 74 -111 111
-29 117 139 239 281 206z m1065 -223 c0 -5 -4 -8 -10 -8 -5 0 -10 10 -10 23 0
18 2 19 10 7 5 -8 10 -18 10 -22z m-60 -1144 c48 -62 147 -147 164 -141 7 3
36 35 62 71 53 71 67 73 36 4 -60 -135 -165 -172 -252 -89 -58 55 -95 204 -51
201 3 -1 22 -21 41 -46z"/>
<path d="M2060 2450 c-8 -5 -10 -10 -5 -10 6 0 17 5 25 10 8 5 11 10 5 10 -5
0 -17 -5 -25 -10z"/>
<path d="M2411 594 c0 -11 3 -14 6 -6 3 7 2 16 -1 19 -3 4 -6 -2 -5 -13z"/>
<path d="M2401 544 c0 -11 3 -14 6 -6 3 7 2 16 -1 19 -3 4 -6 -2 -5 -13z"/>
<path d="M2391 504 c0 -11 3 -14 6 -6 3 7 2 16 -1 19 -3 4 -6 -2 -5 -13z"/>
<path d="M1190 421 c0 -6 4 -13 10 -16 6 -3 7 1 4 9 -7 18 -14 21 -14 7z"/>
<path d="M2108 393 c7 -3 16 -2 19 1 4 3 -2 6 -13 5 -11 0 -14 -3 -6 -6z"/>
<path d="M2148 383 c7 -3 16 -2 19 1 4 3 -2 6 -13 5 -11 0 -14 -3 -6 -6z"/>
<path d="M1220 371 c0 -6 4 -13 10 -16 6 -3 7 1 4 9 -7 18 -14 21 -14 7z"/>
<path d="M2198 373 c6 -2 18 -2 25 0 6 3 1 5 -13 5 -14 0 -19 -2 -12 -5z"/>
</g>
</svg>
